<?xml version="1.0" standalone="no"?>
<!DOCTYPE svg PUBLIC "-//W3C//DTD SVG 20010904//EN"
 "http://www.w3.org/TR/2001/REC-SVG-20010904/DTD/svg10.dtd">
<svg version="1.0" xmlns="http://www.w3.org/2000/svg"
 width="700.000000pt" height="700.000000pt" viewBox="0 0 700.000000 700.000000"
 preserveAspectRatio="xMidYMid meet">
<metadata>
Created by potrace 1.14, written by Peter Selinger 2001-2017
</metadata>
<g transform="translate(0.000000,700.000000) scale(0.100000,-0.100000)"
fill="#000000" stroke="none">
<path d="M3280 6994 c-19 -2 -84 -9 -145 -14 -578 -56 -1180 -283 -1660 -625
-237 -169 -531 -446 -709 -670 -416 -521 -673 -1147 -748 -1820 -17 -154 -17
-585 0 -730 69 -588 254 -1099 567 -1570 126 -189 242 -332 410 -504 580 -595
1295 -943 2140 -1043 145 -17 576 -17 730 0 822 91 1556 447 2131 1034 203
206 348 390 487 618 274 449 432 915 499 1465 16 135 16 591 0 730 -100 846
-447 1557 -1043 2141 -555 542 -1249 874 -2029 970 -117 15 -553 27 -630 18z
m140 -2394 l0 -200 -552 -2 -553 -3 -3 -327 -2 -328 495 0 495 0 0 -200 0
-200 -492 -2 -493 -3 -3 -512 -2 -513 -255 0 -255 0 0 1245 0 1245 810 0 810
0 0 -200z m1039 -425 c89 -21 174 -69 251 -142 l66 -62 13 77 c7 42 15 85 17
95 5 15 24 17 220 17 l214 0 0 -1280 0 -1280 -250 0 -250 0 0 431 0 431 -52
-46 c-110 -96 -224 -136 -394 -136 -342 0 -578 207 -681 599 -22 84 -26 123
-30 307 -4 165 -2 233 11 314 57 363 239 597 520 670 89 24 255 26 345 5z"/>
<path d="M4345 3801 c-124 -32 -205 -129 -252 -301 -26 -94 -26 -436 0 -529
69 -253 219 -353 442 -296 72 19 128 55 172 114 l33 43 0 402 0 403 -29 40
c-57 79 -143 121 -258 128 -43 2 -91 1 -108 -4z"/>
</g>
</svg>
