<svg width="1100" height="500" viewBox="0 0 1100 500" fill="none" xmlns="http://www.w3.org/2000/svg">
<rect width="1100" height="500" rx="250" fill="#FBBF24"/>
<path d="M289.136 157.266V335H252.515V157.266H289.136ZM359.937 233.193V261.758H279.126V233.193H359.937ZM368.481 157.266V185.952H279.126V157.266H368.481ZM424.634 147.5V335H389.355V147.5H424.634ZM448.071 270.303V267.739C448.071 258.055 449.455 249.144 452.222 241.006C454.989 232.786 459.017 225.666 464.307 219.644C469.596 213.621 476.107 208.942 483.838 205.605C491.569 202.188 500.439 200.479 510.449 200.479C520.459 200.479 529.37 202.188 537.183 205.605C544.995 208.942 551.546 213.621 556.836 219.644C562.207 225.666 566.276 232.786 569.043 241.006C571.81 249.144 573.193 258.055 573.193 267.739V270.303C573.193 279.906 571.81 288.817 569.043 297.036C566.276 305.174 562.207 312.295 556.836 318.398C551.546 324.421 545.036 329.1 537.305 332.437C529.574 335.773 520.703 337.441 510.693 337.441C500.684 337.441 491.772 335.773 483.96 332.437C476.229 329.1 469.678 324.421 464.307 318.398C459.017 312.295 454.989 305.174 452.222 297.036C449.455 288.817 448.071 279.906 448.071 270.303ZM483.228 267.739V270.303C483.228 275.837 483.716 281.004 484.692 285.806C485.669 290.607 487.215 294.839 489.331 298.501C491.528 302.082 494.377 304.889 497.876 306.924C501.375 308.958 505.648 309.976 510.693 309.976C515.576 309.976 519.767 308.958 523.267 306.924C526.766 304.889 529.574 302.082 531.689 298.501C533.805 294.839 535.352 290.607 536.328 285.806C537.386 281.004 537.915 275.837 537.915 270.303V267.739C537.915 262.368 537.386 257.323 536.328 252.603C535.352 247.801 533.765 243.569 531.567 239.907C529.451 236.164 526.644 233.234 523.145 231.118C519.645 229.002 515.413 227.944 510.449 227.944C505.485 227.944 501.253 229.002 497.754 231.118C494.336 233.234 491.528 236.164 489.331 239.907C487.215 243.569 485.669 247.801 484.692 252.603C483.716 257.323 483.228 262.368 483.228 267.739ZM589.185 270.303V267.739C589.185 258.055 590.568 249.144 593.335 241.006C596.102 232.786 600.13 225.666 605.42 219.644C610.71 213.621 617.22 208.942 624.951 205.605C632.682 202.188 641.553 200.479 651.562 200.479C661.572 200.479 670.483 202.188 678.296 205.605C686.108 208.942 692.66 213.621 697.949 219.644C703.32 225.666 707.389 232.786 710.156 241.006C712.923 249.144 714.307 258.055 714.307 267.739V270.303C714.307 279.906 712.923 288.817 710.156 297.036C707.389 305.174 703.32 312.295 697.949 318.398C692.66 324.421 686.149 329.1 678.418 332.437C670.687 335.773 661.816 337.441 651.807 337.441C641.797 337.441 632.886 335.773 625.073 332.437C617.342 329.1 610.791 324.421 605.42 318.398C600.13 312.295 596.102 305.174 593.335 297.036C590.568 288.817 589.185 279.906 589.185 270.303ZM624.341 267.739V270.303C624.341 275.837 624.829 281.004 625.806 285.806C626.782 290.607 628.328 294.839 630.444 298.501C632.642 302.082 635.49 304.889 638.989 306.924C642.489 308.958 646.761 309.976 651.807 309.976C656.689 309.976 660.881 308.958 664.38 306.924C667.879 304.889 670.687 302.082 672.803 298.501C674.919 294.839 676.465 290.607 677.441 285.806C678.499 281.004 679.028 275.837 679.028 270.303V267.739C679.028 262.368 678.499 257.323 677.441 252.603C676.465 247.801 674.878 243.569 672.681 239.907C670.565 236.164 667.757 233.234 664.258 231.118C660.758 229.002 656.527 227.944 651.562 227.944C646.598 227.944 642.367 229.002 638.867 231.118C635.449 233.234 632.642 236.164 630.444 239.907C628.328 243.569 626.782 247.801 625.806 252.603C624.829 257.323 624.341 262.368 624.341 267.739ZM813.916 385.781V229.897L818.433 202.92H849.316V385.781H813.916ZM730.42 270.303V267.739C730.42 257.648 731.519 248.493 733.716 240.273C735.994 231.973 739.331 224.893 743.726 219.033C748.12 213.092 753.491 208.535 759.839 205.361C766.268 202.106 773.674 200.479 782.056 200.479C790.112 200.479 797.07 202.106 802.93 205.361C808.789 208.617 813.713 213.215 817.7 219.155C821.769 225.096 825.024 232.095 827.466 240.151C829.907 248.208 831.779 257.038 833.081 266.641V272.256C831.86 281.452 829.989 289.997 827.466 297.891C825.024 305.785 821.769 312.702 817.7 318.643C813.713 324.583 808.748 329.222 802.808 332.559C796.948 335.814 789.95 337.441 781.812 337.441C773.592 337.441 766.268 335.773 759.839 332.437C753.491 329.019 748.12 324.299 743.726 318.276C739.331 312.254 735.994 305.174 733.716 297.036C731.519 288.817 730.42 279.906 730.42 270.303ZM765.576 267.739V270.303C765.576 275.755 766.024 280.882 766.919 285.684C767.814 290.404 769.238 294.595 771.191 298.257C773.226 301.919 775.83 304.808 779.004 306.924C782.178 308.958 786.084 309.976 790.723 309.976C797.152 309.976 802.319 308.592 806.226 305.825C810.213 302.977 813.143 299.111 815.015 294.229C816.968 289.346 818.107 283.771 818.433 277.505V261.514C818.188 256.387 817.497 251.789 816.357 247.72C815.299 243.569 813.672 240.029 811.475 237.1C809.359 234.17 806.592 231.932 803.174 230.386C799.837 228.758 795.768 227.944 790.967 227.944C786.41 227.944 782.503 228.962 779.248 230.996C775.993 233.031 773.348 235.879 771.313 239.541C769.36 243.122 767.896 247.313 766.919 252.114C766.024 256.916 765.576 262.124 765.576 267.739Z" fill="white"/>
</svg>
