<svg width="551" height="283" viewBox="0 0 551 283" fill="none" xmlns="http://www.w3.org/2000/svg">
<path d="M330.393 262.336L330.757 254.145C334.555 252.115 338.791 251.042 343.097 251.021C337.171 255.867 337.911 265.207 333.893 271.723C332.624 273.746 330.917 275.457 328.896 276.73C326.876 278.003 324.596 278.806 322.223 279.077L317.264 282.114C316.583 278.32 316.733 274.424 317.703 270.693C318.674 266.963 320.441 263.487 322.884 260.505C324.271 258.846 325.862 257.368 327.618 256.107C328.806 259.239 330.393 262.336 330.393 262.336Z" fill="#F2F2F2"/>
<path d="M79.6702 253.36L67.7014 249.736C66.1317 243.359 66.1424 236.695 67.7327 230.323C72.6615 240.906 86.7446 243.33 94.8611 251.723C97.3725 254.36 99.2584 257.528 100.379 260.993C101.499 264.458 101.826 268.13 101.334 271.738L103.954 280.212C98.0903 279.789 92.3884 278.099 87.2408 275.26C82.0932 272.421 77.6223 268.5 74.1361 263.767C72.2066 261.092 70.6217 258.185 69.4187 255.114C74.495 254.538 79.6702 253.36 79.6702 253.36Z" fill="#F2F2F2"/>
<path d="M288.921 280.775C288.919 281.023 288.82 281.26 288.646 281.436C288.559 281.522 288.457 281.591 288.344 281.637C288.231 281.683 288.11 281.707 287.988 281.707H284.241C284.119 281.707 283.997 281.683 283.884 281.637C283.771 281.59 283.668 281.521 283.581 281.435C283.494 281.348 283.426 281.245 283.379 281.132C283.332 281.018 283.309 280.897 283.309 280.775V167.454C283.309 164.956 282.47 162.929 281.44 162.924H48.1769C47.1422 162.929 46.3079 164.956 46.3033 167.454V280.08C46.3025 280.312 46.2158 280.535 46.06 280.706C45.9041 280.877 45.6902 280.985 45.4597 281.008C44.7047 281.082 43.9496 281.147 43.1993 281.208C43.1806 281.208 43.162 281.213 43.1433 281.213C42.7332 281.25 42.3231 281.278 41.9129 281.311H41.9082C41.6939 280.924 41.4888 280.527 41.279 280.131C41.2118 279.997 41.1767 279.848 41.1765 279.698V161.577C41.1765 160.887 41.2045 160.193 41.2511 159.508C41.3176 158.567 41.4343 157.63 41.6006 156.702C42.3883 152.372 44.1687 149.441 46.1914 149.431H283.421C283.716 149.433 284.008 149.495 284.279 149.613C284.676 149.789 285.035 150.041 285.336 150.354C285.745 150.779 286.095 151.257 286.376 151.776C287.373 153.533 288.086 156.152 288.338 159.2C288.338 159.228 288.343 159.256 288.343 159.284C288.408 160.039 288.44 160.808 288.436 161.577L288.501 171.565L288.543 177.521L288.669 196.211L288.715 202.848L288.921 280.775Z" fill="#E6E6E6"/>
<path d="M202.348 114.88H178.576C178.24 114.88 177.918 115.014 177.68 115.253C177.443 115.491 177.309 115.813 177.31 116.15V153.703H203.618V116.15C203.618 115.983 203.585 115.818 203.522 115.664C203.458 115.51 203.364 115.37 203.246 115.252C203.129 115.134 202.989 115.04 202.834 114.976C202.68 114.913 202.515 114.88 202.348 114.88V114.88ZM190.542 136.217C189.799 136.214 189.087 135.917 188.561 135.391C188.036 134.865 187.739 134.153 187.735 133.41V129.079C187.735 128.334 188.031 127.62 188.557 127.094C189.084 126.567 189.798 126.271 190.542 126.271C191.287 126.271 192.001 126.567 192.527 127.094C193.054 127.62 193.349 128.334 193.349 129.079V133.41C193.346 134.153 193.049 134.865 192.523 135.391C191.998 135.917 191.286 136.214 190.542 136.217V136.217Z" fill="#CCCCCC"/>
<path d="M177.228 152.501V156.125C177.229 156.312 177.303 156.492 177.436 156.625C177.569 156.758 177.749 156.833 177.937 156.833H202.992C203.179 156.832 203.359 156.757 203.491 156.624C203.624 156.492 203.699 156.312 203.7 156.125V152.501H177.228Z" fill="#9CA3AF"/>
<path d="M241.713 56.2742H140.096C139.223 56.2756 138.386 56.623 137.769 57.2403C137.152 57.8577 136.804 58.6946 136.803 59.5676V128.139C136.804 129.012 137.151 129.849 137.768 130.467C138.386 131.084 139.223 131.432 140.096 131.432H241.713C242.586 131.432 243.423 131.084 244.041 130.467C244.658 129.849 245.006 129.012 245.006 128.139V59.5676C245.005 58.6946 244.658 57.8577 244.04 57.2403C243.423 56.623 242.586 56.2756 241.713 56.2742V56.2742Z" fill="#E6E6E6"/>
<path d="M240.865 58.6531H140.945C140.478 58.6541 140.03 58.8405 139.7 59.1714C139.369 59.5023 139.184 59.9506 139.184 60.4181V127.29C139.185 127.757 139.37 128.204 139.701 128.534C140.031 128.865 140.478 129.05 140.945 129.051H240.865C241.332 129.05 241.779 128.865 242.109 128.534C242.439 128.204 242.625 127.757 242.626 127.29V60.4181C242.626 59.9506 242.441 59.5023 242.11 59.1714C241.78 58.8405 241.332 58.6541 240.865 58.6531V58.6531Z" fill="white"/>
<path d="M221.402 158.094H161.955C161.793 158.094 161.632 158.057 161.485 157.987C161.338 157.917 161.209 157.815 161.106 157.689C161.004 157.563 160.931 157.415 160.892 157.257C160.854 157.099 160.852 156.934 160.885 156.775L161.808 152.394C161.86 152.149 161.995 151.929 162.19 151.771C162.384 151.613 162.627 151.527 162.878 151.526H220.48C220.73 151.527 220.973 151.613 221.168 151.771C221.362 151.929 221.497 152.149 221.55 152.394L222.472 156.775C222.506 156.934 222.503 157.099 222.465 157.257C222.427 157.415 222.354 157.563 222.251 157.689C222.149 157.815 222.019 157.917 221.872 157.987C221.725 158.057 221.565 158.094 221.402 158.094V158.094Z" fill="#CCCCCC"/>
<path d="M164.903 152.314H163.527C163.402 152.314 163.3 152.416 163.3 152.542V153.185C163.3 153.311 163.402 153.413 163.527 153.413H164.903C165.029 153.413 165.131 153.311 165.131 153.185V152.542C165.131 152.416 165.029 152.314 164.903 152.314Z" fill="#E6E6E6"/>
<path d="M168.565 152.314H167.189C167.064 152.314 166.962 152.416 166.962 152.542V153.185C166.962 153.311 167.064 153.413 167.189 153.413H168.565C168.691 153.413 168.793 153.311 168.793 153.185V152.542C168.793 152.416 168.691 152.314 168.565 152.314Z" fill="#E6E6E6"/>
<path d="M172.227 152.314H170.851C170.725 152.314 170.624 152.416 170.624 152.542V153.185C170.624 153.311 170.725 153.413 170.851 153.413H172.227C172.353 153.413 172.454 153.311 172.454 153.185V152.542C172.454 152.416 172.353 152.314 172.227 152.314Z" fill="#E6E6E6"/>
<path d="M175.889 152.314H174.513C174.387 152.314 174.285 152.416 174.285 152.542V153.185C174.285 153.311 174.387 153.413 174.513 153.413H175.889C176.014 153.413 176.116 153.311 176.116 153.185V152.542C176.116 152.416 176.014 152.314 175.889 152.314Z" fill="#E6E6E6"/>
<path d="M179.55 152.314H178.175C178.049 152.314 177.947 152.416 177.947 152.542V153.185C177.947 153.311 178.049 153.413 178.175 153.413H179.55C179.676 153.413 179.778 153.311 179.778 153.185V152.542C179.778 152.416 179.676 152.314 179.55 152.314Z" fill="#E6E6E6"/>
<path d="M183.212 152.314H181.836C181.711 152.314 181.609 152.416 181.609 152.542V153.185C181.609 153.311 181.711 153.413 181.836 153.413H183.212C183.338 153.413 183.44 153.311 183.44 153.185V152.542C183.44 152.416 183.338 152.314 183.212 152.314Z" fill="#E6E6E6"/>
<path d="M186.874 152.314H185.498C185.373 152.314 185.271 152.416 185.271 152.542V153.185C185.271 153.311 185.373 153.413 185.498 153.413H186.874C187 153.413 187.102 153.311 187.102 153.185V152.542C187.102 152.416 187 152.314 186.874 152.314Z" fill="#E6E6E6"/>
<path d="M190.536 152.314H189.16C189.034 152.314 188.932 152.416 188.932 152.542V153.185C188.932 153.311 189.034 153.413 189.16 153.413H190.536C190.661 153.413 190.763 153.311 190.763 153.185V152.542C190.763 152.416 190.661 152.314 190.536 152.314Z" fill="#E6E6E6"/>
<path d="M194.198 152.314H192.822C192.696 152.314 192.594 152.416 192.594 152.542V153.185C192.594 153.311 192.696 153.413 192.822 153.413H194.198C194.323 153.413 194.425 153.311 194.425 153.185V152.542C194.425 152.416 194.323 152.314 194.198 152.314Z" fill="#E6E6E6"/>
<path d="M197.859 152.314H196.484C196.358 152.314 196.256 152.416 196.256 152.542V153.185C196.256 153.311 196.358 153.413 196.484 153.413H197.859C197.985 153.413 198.087 153.311 198.087 153.185V152.542C198.087 152.416 197.985 152.314 197.859 152.314Z" fill="#E6E6E6"/>
<path d="M201.521 152.314H200.145C200.02 152.314 199.918 152.416 199.918 152.542V153.185C199.918 153.311 200.02 153.413 200.145 153.413H201.521C201.647 153.413 201.749 153.311 201.749 153.185V152.542C201.749 152.416 201.647 152.314 201.521 152.314Z" fill="#E6E6E6"/>
<path d="M205.183 152.314H203.807C203.681 152.314 203.58 152.416 203.58 152.542V153.185C203.58 153.311 203.681 153.413 203.807 153.413H205.183C205.309 153.413 205.41 153.311 205.41 153.185V152.542C205.41 152.416 205.309 152.314 205.183 152.314Z" fill="#E6E6E6"/>
<path d="M208.845 152.314H207.469C207.343 152.314 207.241 152.416 207.241 152.542V153.185C207.241 153.311 207.343 153.413 207.469 153.413H208.845C208.97 153.413 209.072 153.311 209.072 153.185V152.542C209.072 152.416 208.97 152.314 208.845 152.314Z" fill="#E6E6E6"/>
<path d="M212.507 152.314H211.131C211.005 152.314 210.903 152.416 210.903 152.542V153.185C210.903 153.311 211.005 153.413 211.131 153.413H212.507C212.632 153.413 212.734 153.311 212.734 153.185V152.542C212.734 152.416 212.632 152.314 212.507 152.314Z" fill="#E6E6E6"/>
<path d="M216.168 152.314H214.793C214.667 152.314 214.565 152.416 214.565 152.542V153.185C214.565 153.311 214.667 153.413 214.793 153.413H216.168C216.294 153.413 216.396 153.311 216.396 153.185V152.542C216.396 152.416 216.294 152.314 216.168 152.314Z" fill="#E6E6E6"/>
<path d="M219.83 152.314H218.454C218.329 152.314 218.227 152.416 218.227 152.542V153.185C218.227 153.311 218.329 153.413 218.454 153.413H219.83C219.956 153.413 220.058 153.311 220.058 153.185V152.542C220.058 152.416 219.956 152.314 219.83 152.314Z" fill="#E6E6E6"/>
<path d="M164.86 154.146H163.484C163.358 154.146 163.257 154.247 163.257 154.373V155.017C163.257 155.142 163.358 155.244 163.484 155.244H164.86C164.986 155.244 165.087 155.142 165.087 155.017V154.373C165.087 154.247 164.986 154.146 164.86 154.146Z" fill="#E6E6E6"/>
<path d="M168.522 154.146H167.146C167.02 154.146 166.918 154.247 166.918 154.373V155.017C166.918 155.142 167.02 155.244 167.146 155.244H168.522C168.647 155.244 168.749 155.142 168.749 155.017V154.373C168.749 154.247 168.647 154.146 168.522 154.146Z" fill="#E6E6E6"/>
<path d="M172.183 154.146H170.808C170.682 154.146 170.58 154.247 170.58 154.373V155.017C170.58 155.142 170.682 155.244 170.808 155.244H172.183C172.309 155.244 172.411 155.142 172.411 155.017V154.373C172.411 154.247 172.309 154.146 172.183 154.146Z" fill="#E6E6E6"/>
<path d="M175.845 154.146H174.469C174.344 154.146 174.242 154.247 174.242 154.373V155.017C174.242 155.142 174.344 155.244 174.469 155.244H175.845C175.971 155.244 176.073 155.142 176.073 155.017V154.373C176.073 154.247 175.971 154.146 175.845 154.146Z" fill="#E6E6E6"/>
<path d="M179.507 154.146H178.131C178.006 154.146 177.904 154.247 177.904 154.373V155.017C177.904 155.142 178.006 155.244 178.131 155.244H179.507C179.633 155.244 179.735 155.142 179.735 155.017V154.373C179.735 154.247 179.633 154.146 179.507 154.146Z" fill="#E6E6E6"/>
<path d="M183.169 154.146H181.793C181.668 154.146 181.566 154.247 181.566 154.373V155.017C181.566 155.142 181.668 155.244 181.793 155.244H183.169C183.295 155.244 183.397 155.142 183.397 155.017V154.373C183.397 154.247 183.295 154.146 183.169 154.146Z" fill="#E6E6E6"/>
<path d="M186.831 154.146H185.455C185.329 154.146 185.227 154.247 185.227 154.373V155.017C185.227 155.142 185.329 155.244 185.455 155.244H186.831C186.956 155.244 187.058 155.142 187.058 155.017V154.373C187.058 154.247 186.956 154.146 186.831 154.146Z" fill="#E6E6E6"/>
<path d="M190.493 154.146H189.117C188.991 154.146 188.889 154.247 188.889 154.373V155.017C188.889 155.142 188.991 155.244 189.117 155.244H190.493C190.618 155.244 190.72 155.142 190.72 155.017V154.373C190.72 154.247 190.618 154.146 190.493 154.146Z" fill="#E6E6E6"/>
<path d="M194.154 154.146H192.779C192.653 154.146 192.551 154.247 192.551 154.373V155.017C192.551 155.142 192.653 155.244 192.779 155.244H194.154C194.28 155.244 194.382 155.142 194.382 155.017V154.373C194.382 154.247 194.28 154.146 194.154 154.146Z" fill="#E6E6E6"/>
<path d="M197.816 154.146H196.44C196.315 154.146 196.213 154.247 196.213 154.373V155.017C196.213 155.142 196.315 155.244 196.44 155.244H197.816C197.942 155.244 198.044 155.142 198.044 155.017V154.373C198.044 154.247 197.942 154.146 197.816 154.146Z" fill="#E6E6E6"/>
<path d="M201.478 154.146H200.102C199.976 154.146 199.875 154.247 199.875 154.373V155.017C199.875 155.142 199.976 155.244 200.102 155.244H201.478C201.604 155.244 201.705 155.142 201.705 155.017V154.373C201.705 154.247 201.604 154.146 201.478 154.146Z" fill="#E6E6E6"/>
<path d="M205.14 154.146H203.764C203.638 154.146 203.536 154.247 203.536 154.373V155.017C203.536 155.142 203.638 155.244 203.764 155.244H205.14C205.265 155.244 205.367 155.142 205.367 155.017V154.373C205.367 154.247 205.265 154.146 205.14 154.146Z" fill="#E6E6E6"/>
<path d="M208.802 154.146H207.426C207.3 154.146 207.198 154.247 207.198 154.373V155.017C207.198 155.142 207.3 155.244 207.426 155.244H208.802C208.927 155.244 209.029 155.142 209.029 155.017V154.373C209.029 154.247 208.927 154.146 208.802 154.146Z" fill="#E6E6E6"/>
<path d="M212.463 154.146H211.087C210.962 154.146 210.86 154.247 210.86 154.373V155.017C210.86 155.142 210.962 155.244 211.087 155.244H212.463C212.589 155.244 212.691 155.142 212.691 155.017V154.373C212.691 154.247 212.589 154.146 212.463 154.146Z" fill="#E6E6E6"/>
<path d="M216.125 154.146H214.749C214.624 154.146 214.522 154.247 214.522 154.373V155.017C214.522 155.142 214.624 155.244 214.749 155.244H216.125C216.251 155.244 216.353 155.142 216.353 155.017V154.373C216.353 154.247 216.251 154.146 216.125 154.146Z" fill="#E6E6E6"/>
<path d="M219.787 154.146H218.411C218.285 154.146 218.184 154.247 218.184 154.373V155.017C218.184 155.142 218.285 155.244 218.411 155.244H219.787C219.913 155.244 220.014 155.142 220.014 155.017V154.373C220.014 154.247 219.913 154.146 219.787 154.146Z" fill="#E6E6E6"/>
<path d="M195.253 156.343H181.061C180.935 156.343 180.833 156.444 180.833 156.57V157.214C180.833 157.339 180.935 157.441 181.061 157.441H195.253C195.379 157.441 195.48 157.339 195.48 157.214V156.57C195.48 156.444 195.379 156.343 195.253 156.343Z" fill="#E6E6E6"/>
<path d="M235.842 67.8664H142.348C142.251 67.8643 142.158 67.8241 142.09 67.7547C142.022 67.6852 141.984 67.5918 141.984 67.4946C141.984 67.3974 142.022 67.3041 142.09 67.2346C142.158 67.1651 142.251 67.125 142.348 67.1228H235.842C235.939 67.125 236.032 67.1651 236.1 67.2346C236.168 67.3041 236.206 67.3974 236.206 67.4946C236.206 67.5918 236.168 67.6852 236.1 67.7547C236.032 67.8241 235.939 67.8643 235.842 67.8664Z" fill="#CACACA"/>
<path d="M148.712 65.2245C149.915 65.2245 150.891 64.2272 150.891 62.997C150.891 61.7668 149.915 60.7695 148.712 60.7695C147.508 60.7695 146.533 61.7668 146.533 62.997C146.533 64.2272 147.508 65.2245 148.712 65.2245Z" fill="#CCCCCC"/>
<path d="M156.239 65.2245C157.443 65.2245 158.418 64.2272 158.418 62.997C158.418 61.7668 157.443 60.7695 156.239 60.7695C155.036 60.7695 154.06 61.7668 154.06 62.997C154.06 64.2272 155.036 65.2245 156.239 65.2245Z" fill="#CCCCCC"/>
<path d="M163.766 65.2245C164.97 65.2245 165.945 64.2272 165.945 62.997C165.945 61.7668 164.97 60.7695 163.766 60.7695C162.563 60.7695 161.587 61.7668 161.587 62.997C161.587 64.2272 162.563 65.2245 163.766 65.2245Z" fill="#CCCCCC"/>
<path d="M231.31 61.3215H225.963C225.857 61.3237 225.756 61.3672 225.682 61.4429C225.608 61.5186 225.566 61.6204 225.566 61.7264C225.566 61.8324 225.608 61.9341 225.682 62.0098C225.756 62.0855 225.857 62.1291 225.963 62.1313H231.31C231.416 62.1291 231.517 62.0855 231.591 62.0098C231.665 61.9341 231.707 61.8324 231.707 61.7264C231.707 61.6204 231.665 61.5186 231.591 61.4429C231.517 61.3672 231.416 61.3237 231.31 61.3215V61.3215Z" fill="#CCCCCC"/>
<path d="M231.31 62.8413H225.963C225.857 62.8434 225.756 62.887 225.682 62.9627C225.608 63.0384 225.566 63.1402 225.566 63.2462C225.566 63.3522 225.608 63.4539 225.682 63.5296C225.756 63.6053 225.857 63.6489 225.963 63.651H231.31C231.416 63.6489 231.517 63.6053 231.591 63.5296C231.665 63.4539 231.707 63.3522 231.707 63.2462C231.707 63.1402 231.665 63.0384 231.591 62.9627C231.517 62.887 231.416 62.8434 231.31 62.8413V62.8413Z" fill="#CCCCCC"/>
<path d="M231.31 64.3591H225.963C225.857 64.3613 225.756 64.4048 225.682 64.4805C225.608 64.5562 225.566 64.658 225.566 64.764C225.566 64.87 225.608 64.9717 225.682 65.0474C225.756 65.1231 225.857 65.1667 225.963 65.1689H231.31C231.416 65.1667 231.517 65.1231 231.591 65.0474C231.665 64.9717 231.707 64.87 231.707 64.764C231.707 64.658 231.665 64.5562 231.591 64.4805C231.517 64.4048 231.416 64.3613 231.31 64.3591V64.3591Z" fill="#CCCCCC"/>
<path d="M188.999 73.5039L188.697 72.6216L227.315 52.5564L227.616 53.4387L188.999 73.5039Z" fill="#9CA3AF"/>
<path d="M305.516 110.669L305.214 109.787L328.452 89.8232L328.753 90.705L305.516 110.669Z" fill="#9CA3AF"/>
<path d="M260.872 115.316L222.254 95.2512L222.556 94.3689L261.173 114.434L260.872 115.316Z" fill="#9CA3AF"/>
<path d="M280.64 101.354L258.001 64.1866L258.716 63.5886L281.355 100.756L280.64 101.354Z" fill="#9CA3AF"/>
<path d="M298.308 52.9241L276.26 52.8225V51.8904L298.308 51.992V52.9241Z" fill="#9CA3AF"/>
<path d="M338.249 58.7059H313.547C311.94 58.7059 310.399 58.0676 309.263 56.9313C308.126 55.7951 307.488 54.254 307.488 52.647C307.488 51.0401 308.126 49.499 309.263 48.3627C310.399 47.2265 311.94 46.5881 313.547 46.5881H338.249C339.856 46.5881 341.397 47.2265 342.533 48.3627C343.669 49.499 344.308 51.0401 344.308 52.647C344.308 54.254 343.669 55.7951 342.533 56.9313C341.397 58.0676 339.856 58.7059 338.249 58.7059V58.7059Z" fill="#FBBF24"/>
<path d="M369.009 94.1271H344.307C342.701 94.1271 341.159 93.4887 340.023 92.3525C338.887 91.2162 338.249 89.6751 338.249 88.0682C338.249 86.4613 338.887 84.9202 340.023 83.7839C341.159 82.6476 342.701 82.0093 344.307 82.0093H369.009C370.616 82.0093 372.157 82.6476 373.293 83.7839C374.43 84.9202 375.068 86.4613 375.068 88.0682C375.068 89.6751 374.43 91.2162 373.293 92.3525C372.157 93.4887 370.616 94.1271 369.009 94.1271V94.1271Z" fill="#FBBF24"/>
<path d="M329.068 119.106L307.02 119.004V118.072L329.068 118.173V119.106Z" fill="#9CA3AF"/>
<path d="M369.009 124.888H344.307C342.701 124.888 341.159 124.249 340.023 123.113C338.887 121.977 338.249 120.436 338.249 118.829C338.249 117.222 338.887 115.681 340.023 114.545C341.159 113.408 342.701 112.77 344.307 112.77H369.009C370.616 112.77 372.157 113.408 373.293 114.545C374.43 115.681 375.068 117.222 375.068 118.829C375.068 120.436 374.43 121.977 373.293 123.113C372.157 124.249 370.616 124.888 369.009 124.888V124.888Z" fill="#FBBF24"/>
<path d="M296.768 120.712H272.067C270.46 120.712 268.919 120.074 267.782 118.937C266.646 117.801 266.008 116.26 266.008 114.653C266.008 113.046 266.646 111.505 267.782 110.369C268.919 109.233 270.46 108.594 272.067 108.594H296.768C298.375 108.594 299.916 109.233 301.053 110.369C302.189 111.505 302.827 113.046 302.827 114.653C302.827 116.26 302.189 117.801 301.053 118.937C299.916 120.074 298.375 120.712 296.768 120.712V120.712Z" fill="#FBBF24"/>
<path d="M263.211 58.2587H238.51C236.903 58.2587 235.362 57.6203 234.225 56.4841C233.089 55.3478 232.451 53.8067 232.451 52.1998C232.451 50.5929 233.089 49.0517 234.225 47.9155C235.362 46.7792 236.903 46.1409 238.51 46.1409H263.211C264.818 46.1409 266.359 46.7792 267.496 47.9155C268.632 49.0517 269.27 50.5929 269.27 52.1998C269.27 53.8067 268.632 55.3478 267.496 56.4841C266.359 57.6203 264.818 58.2587 263.211 58.2587V58.2587Z" fill="#FBBF24"/>
<path d="M145.143 162.276H117.179C116.19 162.276 115.241 162.669 114.542 163.368C113.843 164.067 113.45 165.016 113.45 166.005C113.45 166.994 113.843 167.942 114.542 168.641C115.241 169.34 116.19 169.733 117.179 169.733H127.432V198.63H134.889V169.733H145.143C146.132 169.733 147.08 169.34 147.779 168.641C148.478 167.942 148.871 166.994 148.871 166.005C148.871 165.016 148.478 164.067 147.779 163.368C147.08 162.669 146.132 162.276 145.143 162.276V162.276Z" fill="#9CA3AF"/>
<path d="M163.599 214.633H88.8033C81.5521 214.606 74.5526 211.972 69.0832 207.211C63.6138 202.451 60.0397 195.881 59.0137 188.703L56.3661 178.964C50.8861 158.783 42.539 139.493 31.5799 121.683C26.5709 113.548 23.9928 105.674 29.8485 98.0924C29.8984 98.0278 29.9474 97.9642 29.9956 97.9014C34.6923 91.7884 58.0691 90.465 65.6898 90.2076C65.9909 90.1974 66.2931 90.1923 66.5964 90.1924H113.119C113.423 90.1924 113.725 90.1975 114.025 90.2076C118.134 90.3274 122.133 91.557 125.599 93.7661C129.064 95.9751 131.867 99.0812 133.71 102.755C135.677 106.505 136.592 110.718 136.357 114.946C136.123 119.175 134.748 123.261 132.379 126.771C116.037 151.319 111.034 166.712 116.156 176.68C121.111 186.322 136.3 191.252 163.956 192.193C171.388 192.446 174.799 198.234 174.823 203.503C174.846 208.637 171.567 214.305 164.312 214.618C164.076 214.628 163.838 214.633 163.599 214.633Z" fill="#9CA3AF"/>
<path d="M101.51 281.048H129.474C130.463 281.048 131.411 280.655 132.11 279.956C132.809 279.257 133.202 278.308 133.202 277.319C133.202 276.33 132.809 275.382 132.11 274.683C131.411 273.984 130.463 273.591 129.474 273.591H119.22V210.671H111.763V273.591H101.51C100.521 273.591 99.5723 273.984 98.8731 274.683C98.1738 275.382 97.781 276.33 97.781 277.319C97.781 278.308 98.1738 279.257 98.8731 279.956C99.5723 280.655 100.521 281.048 101.51 281.048Z" fill="#9CA3AF"/>
<path d="M126.82 255.682L131.637 258.299L144.39 240.667L137.279 236.804L126.82 255.682Z" fill="#A0616A"/>
<path d="M129.139 249.399L137.884 252.138L136.492 255.801L142.489 264.505C142.785 264.935 142.936 265.448 142.92 265.97C142.904 266.492 142.721 266.995 142.399 267.406C142.077 267.816 141.632 268.113 141.129 268.253C140.626 268.393 140.091 268.368 139.603 268.183L129.423 264.315L129.045 260.024L126.983 263.388L123.144 261.93L129.139 249.399Z" fill="#2F2E41"/>
<path d="M138.991 77.8688C139.106 78.6519 139.047 79.4505 138.819 80.2083C138.591 80.9662 138.2 81.6649 137.673 82.2552C137.146 82.8455 136.496 83.3131 135.768 83.625C135.041 83.9369 134.254 84.0856 133.463 84.0605L114.89 123.581L109.064 115.458L128.184 78.0876C128.315 76.7616 128.927 75.5294 129.905 74.6246C130.883 73.7198 132.159 73.2051 133.491 73.1781C134.823 73.1512 136.118 73.6138 137.132 74.4783C138.146 75.3428 138.808 76.5492 138.991 77.8688V77.8688Z" fill="#A0616A"/>
<path d="M77.3538 131.572C77.3538 131.572 76.856 138.476 84.6641 139.83C92.4723 141.184 113.346 127.985 116.774 125.958C120.202 123.931 126.59 98.4317 126.59 98.4317L121.034 89.0349C114.175 97.7117 108.788 105.713 108.461 111.392L77.3538 131.572Z" fill="#FBBF24"/>
<path d="M86.3677 155.354L88.054 162.599C88.054 162.599 88.0706 169.281 89.2538 170.512C90.4287 171.739 116.265 169.277 116.265 169.277C116.265 169.277 113.526 158.511 113.562 150.364L86.3677 155.354Z" fill="#A0616A"/>
<path d="M140.948 248.033L131.627 242.906C131.449 230.777 138.745 214.363 147.398 197.17C128.046 200.498 109.788 201.564 93.9963 197.538C91.4038 196.853 89.1848 195.176 87.8188 192.869C86.4529 190.561 86.0497 187.809 86.6964 185.207C86.7579 184.951 86.8289 184.699 86.9096 184.449C88.7996 178.682 84.5617 175.068 88.4596 168.725C98.7114 165.224 108.45 164.235 117.356 167.327L122.936 179.665L150.594 176.086C151.93 175.926 153.285 176.032 154.579 176.398C155.874 176.764 157.084 177.383 158.139 178.219C159.193 179.055 160.072 180.092 160.725 181.269C161.377 182.446 161.79 183.74 161.939 185.078C161.977 185.378 162.001 185.679 162.012 185.982C156.42 212.2 150.149 235.79 140.948 248.033Z" fill="#2F2E41"/>
<path d="M82.6135 109.482L93.2683 108.853C93.7177 108.826 94.1641 108.94 94.5453 109.18C94.9266 109.419 95.2238 109.771 95.3954 110.187L98.4065 117.487L110.921 127.83C110.921 127.83 115.875 134.135 115.887 142.277C115.898 150.42 117.645 169.267 117.645 169.267C117.645 169.267 110.413 159.089 105.95 161.796C105.191 162.257 104.924 163.199 104.129 163.675C103.732 163.912 102.815 163.681 102.415 163.919C96.2644 167.57 89.8504 171.137 89.2511 170.511C88.0744 169.283 86.647 163.009 86.647 163.009L76.8939 127.174C76.3651 125.288 76.2601 123.309 76.5864 121.379C76.9127 119.448 77.6622 117.613 78.7812 116.006C79.4625 115.047 80.1765 114.333 80.8399 114.215C82.3295 113.898 81.5371 110.559 82.6135 109.482Z" fill="#FBBF24"/>
<path d="M173.25 270.861L177.747 267.734L167.558 248.512L160.921 253.127L173.25 270.861Z" fill="#A0616A"/>
<path d="M173.929 257.963L166.881 264.264C155.673 251.775 147.2 234.26 140.02 214.37C121.206 208.86 107.019 199.974 94.6328 189.423C90.431 185.867 87.2812 181.3 90.8648 176.969C91.0323 176.766 91.2072 176.57 91.3895 176.381C95.6207 172.033 106.351 172.861 112.635 168.878L126.674 183.883L125.791 187.906L152.16 196.839C153.428 197.283 154.597 197.975 155.597 198.873C156.597 199.771 157.409 200.859 157.987 202.073C158.565 203.287 158.897 204.603 158.963 205.946C159.03 207.289 158.83 208.631 158.375 209.897C158.276 210.182 158.165 210.464 158.042 210.741L173.929 257.963Z" fill="#2F2E41"/>
<path d="M170.627 269.594L177.827 263.924L180.064 267.142L190.634 267.11C191.156 267.108 191.665 267.273 192.086 267.581C192.507 267.889 192.819 268.324 192.976 268.822C193.133 269.32 193.127 269.855 192.958 270.349C192.79 270.843 192.467 271.27 192.039 271.568L183.096 277.784L179.342 275.673L180.953 279.274L177.581 281.618L170.627 269.594Z" fill="#2F2E41"/>
<path d="M98.347 199.791C97.6186 199.482 96.9668 199.017 96.4375 198.429C95.9083 197.84 95.5145 197.143 95.2838 196.386C95.0532 195.629 94.9914 194.831 95.1027 194.047C95.214 193.264 95.4957 192.514 95.928 191.851L71.8069 155.451L81.7744 154.693L103.774 190.444C104.839 191.244 105.574 192.407 105.839 193.712C106.105 195.018 105.882 196.376 105.213 197.528C104.544 198.68 103.475 199.547 102.21 199.964C100.945 200.381 99.5701 200.32 98.347 199.791V199.791Z" fill="#A0616A"/>
<path d="M84.4783 119.226C84.4783 119.226 78.8374 115.214 73.6241 121.182C68.4109 127.151 68.8462 151.844 68.7972 155.826C68.7819 157.073 70.5825 159.763 73.0632 162.871C74.1769 164.266 75.4277 165.746 76.7128 167.216C77.4565 168.067 76.8157 169.838 77.5625 170.666C78.3051 171.488 80.4354 171.367 81.1418 172.13C84.4948 175.754 87.2187 178.513 87.2187 178.513L98.1342 178.647C98.2573 170.533 92.7005 163.29 85.5616 156.289L84.4783 119.226Z" fill="#FBBF24"/>
<path d="M73.4758 83.8961C72.4423 84.642 71.3552 85.4104 70.0941 85.5952C68.8331 85.7801 67.3569 85.1705 67.0079 83.9447C66.5812 82.4459 67.9345 81.0813 69.1509 80.1073L73.0081 77.0186C73.7144 76.3922 74.5118 75.8766 75.373 75.4896C75.8055 75.2993 76.2753 75.2086 76.7476 75.2244C77.2199 75.2402 77.6826 75.362 78.1015 75.5808C78.516 75.8607 78.852 76.2421 79.0775 76.6887C79.3029 77.1352 79.4102 77.6321 79.3893 78.1319C79.3343 79.1335 79.0037 80.1006 78.434 80.9263C77.718 82.0424 76.7836 83.002 75.6869 83.7474C74.5903 84.4929 73.3542 85.0087 72.053 85.2639" fill="#2F2E41"/>
<path d="M102.73 164.141H74.7662C73.7773 164.141 72.8289 164.533 72.1297 165.233C71.4304 165.932 71.0376 166.88 71.0376 167.869C71.0376 168.858 71.4304 169.806 72.1297 170.506C72.8289 171.205 73.7773 171.598 74.7662 171.598H85.0197V200.494H92.4768V171.598H102.73C103.719 171.598 104.668 171.205 105.367 170.506C106.066 169.806 106.459 168.858 106.459 167.869C106.459 166.88 106.066 165.932 105.367 165.233C104.668 164.533 103.719 164.141 102.73 164.141V164.141Z" fill="#9CA3AF"/>
<path d="M75.189 76.0736C75.3016 73.278 72.3225 71.0645 69.531 71.2394C66.7395 71.4144 64.3399 73.378 62.7568 75.6847C61.1742 77.9895 60.2235 80.6591 58.9767 83.1615C57.73 85.664 56.0696 88.1141 53.5921 89.4109C51.1151 90.7058 47.6671 90.4747 45.9549 88.2639C45.4226 89.0712 45.0879 89.9926 44.9781 90.9534C44.8682 91.9142 44.9863 92.8874 45.3227 93.794C46.0236 95.609 47.3307 97.1258 49.0224 98.0869C49.6958 98.4863 50.4151 98.8025 51.1645 99.0289C51.4735 98.1948 51.9083 97.4128 52.4537 96.7102C52.2074 97.542 52.1133 98.4115 52.1761 99.2767C53.3312 99.4981 54.5196 99.4794 55.6671 99.2217C56.7941 98.9696 57.8467 98.4584 58.7417 97.7286C59.6366 96.9987 60.3491 96.0704 60.8227 95.0172C61.8697 92.5387 61.3364 89.7129 61.5603 87.0319C61.7823 84.3504 63.3982 81.2893 66.0887 81.2456C68.1377 81.2119 67.8665 81.3808 69.1647 82.9662" fill="#2F2E41"/>
<path d="M93.795 90.7633C93.795 93.9772 92.5183 97.0594 90.2457 99.3319C87.9732 101.604 84.891 102.881 81.6771 102.881C74.9847 102.881 68.6272 95.1255 68.6272 88.433C68.6272 81.7405 74.9847 78.6455 81.6771 78.6455C84.891 78.6455 87.9732 79.9222 90.2457 82.1947C92.5183 84.4673 93.795 87.5495 93.795 90.7633V90.7633Z" fill="#2F2E41"/>
<path d="M87.6486 105.285C93.9039 104.005 97.9372 97.8966 96.6573 91.6413C95.3773 85.386 89.2688 81.3527 83.0135 82.6326C76.7582 83.9126 72.7249 90.0211 74.0048 96.2764C75.2848 102.532 81.3933 106.565 87.6486 105.285Z" fill="#A0616A"/>
<path d="M99.8539 92.1615C96.4315 93.096 92.9761 94.0755 91.6417 92.1615C91.3824 90.8924 90.891 89.6821 90.1922 88.5914C90.0608 89.8128 89.7742 91.0126 89.3393 92.1615C85.0156 93.1013 80.9745 93.326 77.4825 92.1615C77.0024 93.0299 76.7236 93.9952 76.6669 94.9859C76.4942 94.8774 76.3135 94.7824 76.1262 94.7016C76.0153 94.6388 75.8921 94.6005 75.7651 94.5893C75.6381 94.578 75.5102 94.5941 75.3899 94.6363C75.3068 94.6865 75.2363 94.755 75.1838 94.8366C75.1313 94.9182 75.0982 95.0107 75.0869 95.1071C75.0637 95.3015 75.0732 95.4984 75.1149 95.6896C75.1638 96.3563 75.363 97.0032 75.6975 97.5819C75.8298 97.7812 76.0021 97.9509 76.2035 98.0801C76.4049 98.2092 76.631 98.2951 76.8673 98.3323C77.352 101.059 81.2111 104.745 81.2111 104.745C69.5593 105.211 69.5593 97.3069 69.5593 89.8312L70.9575 87.0347H75.6182V80.9758H88.6682C91.6346 80.9766 94.4793 82.1553 96.5768 84.2529C98.6744 86.3504 99.8531 89.1951 99.8539 92.1615V92.1615Z" fill="#2F2E41"/>
<path d="M206.041 282.397L1.55313 282.54C1.48012 282.54 1.40779 282.526 1.34027 282.498C1.27276 282.471 1.2114 282.43 1.1597 282.378C1.10799 282.327 1.06697 282.265 1.03898 282.198C1.01099 282.131 0.996582 282.058 0.996582 281.985C0.996582 281.912 1.01099 281.84 1.03898 281.773C1.06697 281.705 1.10799 281.644 1.1597 281.592C1.2114 281.541 1.27276 281.5 1.34027 281.472C1.40779 281.444 1.48012 281.43 1.55313 281.43L206.041 281.287C206.188 281.287 206.33 281.346 206.434 281.45C206.538 281.554 206.596 281.695 206.596 281.842C206.596 281.989 206.538 282.13 206.434 282.234C206.33 282.339 206.188 282.397 206.041 282.397Z" fill="#CACACA"/>
<path d="M342.6 282.397L236.918 282.54C236.845 282.54 236.773 282.526 236.706 282.498C236.638 282.471 236.577 282.43 236.525 282.378C236.473 282.327 236.432 282.265 236.404 282.198C236.376 282.131 236.362 282.058 236.362 281.985C236.362 281.912 236.376 281.84 236.404 281.773C236.432 281.705 236.473 281.644 236.525 281.592C236.577 281.541 236.638 281.5 236.706 281.472C236.773 281.444 236.845 281.43 236.918 281.43L342.6 281.287C342.747 281.287 342.888 281.346 342.992 281.45C343.096 281.554 343.155 281.695 343.155 281.842C343.155 281.989 343.096 282.13 342.992 282.234C342.888 282.339 342.747 282.397 342.6 282.397Z" fill="#CACACA"/>
<path d="M210.715 115.119H170.654C168.983 115.117 167.381 114.453 166.2 113.271C165.018 112.09 164.353 110.488 164.352 108.816V82.2724C164.353 80.6013 165.018 78.9992 166.2 77.8176C167.381 76.636 168.983 75.9713 170.654 75.9695H210.715C212.386 75.9713 213.988 76.636 215.169 77.8176C216.351 78.9992 217.016 80.6013 217.017 82.2724V108.816C217.016 110.488 216.351 112.09 215.169 113.271C213.988 114.453 212.386 115.117 210.715 115.119ZM170.654 76.9016C169.23 76.9032 167.865 77.4696 166.859 78.4765C165.852 79.4833 165.285 80.8485 165.284 82.2724V108.816C165.285 110.24 165.852 111.606 166.859 112.612C167.865 113.619 169.23 114.186 170.654 114.187H210.715C212.138 114.186 213.504 113.619 214.51 112.612C215.517 111.606 216.084 110.24 216.085 108.816V82.2724C216.084 80.8485 215.517 79.4833 214.51 78.4765C213.504 77.4696 212.138 76.9032 210.715 76.9016H170.654Z" fill="#E6E6E6"/>
<path d="M182.524 84.3586H171.809V85.2908H182.524V84.3586Z" fill="#E6E6E6"/>
<path d="M195.578 88.0872H171.809V89.0193H195.578V88.0872Z" fill="#E6E6E6"/>
<path d="M195.578 91.3496H171.809V92.2817H195.578V91.3496Z" fill="#E6E6E6"/>
<path d="M202.103 94.6121H171.809V95.5442H202.103V94.6121Z" fill="#E6E6E6"/>
<path d="M187.655 97.8748H171.809V98.8069H187.655V97.8748Z" fill="#E6E6E6"/>
<path d="M200.705 101.137H171.809V102.069H200.705V101.137Z" fill="#E6E6E6"/>
<path d="M176.936 104.4H171.809V105.332H176.936V104.4Z" fill="#E6E6E6"/>
<path d="M416.624 52.4074L416.43 51.0228C423.419 50.0418 428.186 45.4712 430.6 37.4385C431.529 34.1974 432.084 30.8604 432.254 27.4929L433.649 27.578C433.473 31.0531 432.899 34.4966 431.939 37.8409C429.354 46.4429 424.201 51.3437 416.624 52.4074Z" fill="#9CA3AF"/>
<path d="M420.806 250.704L413.626 247.393L422.98 218.118L433.579 223.006L420.806 250.704Z" fill="#FFB6B6"/>
<path d="M417.605 258.312L395.523 248.13L395.651 247.851C396.702 245.571 398.616 243.802 400.971 242.934C403.326 242.065 405.93 242.167 408.21 243.218L408.21 243.218L413.655 242.018L419.77 248.549L421.697 249.437L417.605 258.312Z" fill="#2F2E41"/>
<path d="M510.78 266.612L503.251 269.029L490.343 241.139L501.455 237.572L510.78 266.612Z" fill="#FFB6B6"/>
<path d="M513.568 274.381L490.415 281.816L490.321 281.524C489.554 279.134 489.767 276.537 490.914 274.304C492.062 272.071 494.049 270.386 496.439 269.618L496.439 269.618L499.638 265.051L508.559 265.726L510.58 265.077L513.568 274.381Z" fill="#2F2E41"/>
<path d="M525.713 274.17C525.93 274.18 526.144 274.123 526.327 274.007C526.511 273.891 526.654 273.722 526.738 273.521C526.821 273.321 526.841 273.1 526.795 272.888C526.749 272.677 526.639 272.484 526.48 272.337L526.407 272.049C526.417 272.026 526.426 272.003 526.436 271.979C526.654 271.464 527.02 271.024 527.487 270.716C527.954 270.408 528.502 270.244 529.062 270.247C529.622 270.249 530.169 270.416 530.634 270.728C531.098 271.04 531.461 271.482 531.675 271.999C532.532 274.063 533.623 276.13 533.892 278.312C534.01 279.277 533.96 280.255 533.744 281.202C535.757 276.812 536.802 272.04 536.809 267.21C536.809 265.998 536.742 264.787 536.607 263.583C536.496 262.596 536.341 261.615 536.143 260.642C535.065 255.361 532.749 250.411 529.385 246.199C527.758 245.31 526.441 243.945 525.614 242.285C525.314 241.689 525.102 241.052 524.984 240.395C525.168 240.419 525.677 237.622 525.538 237.451C525.794 237.062 526.252 236.869 526.532 236.49C527.922 234.606 529.837 234.935 530.836 237.496C532.972 238.574 532.993 240.361 531.682 242.081C530.849 243.174 530.734 244.654 530.003 245.825C530.078 245.922 530.156 246.015 530.231 246.111C531.607 247.88 532.806 249.78 533.811 251.783C533.567 249.539 533.859 247.269 534.662 245.16C535.477 243.195 537.004 241.539 538.349 239.84C538.705 239.383 539.188 239.043 539.737 238.861C540.287 238.679 540.878 238.664 541.436 238.817C541.993 238.971 542.493 239.287 542.872 239.725C543.25 240.163 543.49 240.703 543.562 241.277C543.565 241.302 543.567 241.327 543.57 241.352C543.37 241.465 543.175 241.584 542.983 241.711C542.743 241.871 542.557 242.101 542.449 242.369C542.341 242.637 542.317 242.932 542.38 243.214C542.442 243.496 542.588 243.753 542.799 243.951C543.01 244.148 543.276 244.278 543.562 244.322L543.591 244.326C543.52 245.046 543.394 245.76 543.215 246.461C544.94 253.133 541.215 255.563 535.897 255.672C535.779 255.732 535.665 255.792 535.547 255.85C536.557 258.711 537.191 261.693 537.432 264.718C537.568 266.503 537.56 268.296 537.408 270.079L537.417 270.016C537.802 268.033 538.86 266.243 540.412 264.95C542.717 263.056 545.974 262.359 548.46 260.837C548.725 260.667 549.032 260.577 549.346 260.576C549.66 260.575 549.968 260.664 550.233 260.833C550.498 261.001 550.709 261.242 550.842 261.526C550.975 261.811 551.024 262.128 550.982 262.439L550.972 262.505C550.601 262.656 550.241 262.83 549.891 263.026C549.692 263.139 549.496 263.258 549.305 263.385C549.064 263.545 548.878 263.775 548.771 264.043C548.663 264.311 548.639 264.606 548.701 264.888C548.764 265.17 548.91 265.427 549.121 265.625C549.332 265.822 549.598 265.952 549.883 265.996L549.913 266C549.934 266.003 549.952 266.006 549.973 266.009C549.339 267.522 548.45 268.914 547.345 270.124C546.266 275.949 541.633 276.501 536.676 274.805H536.673C536.13 277.168 535.342 279.469 534.322 281.669H525.924C525.893 281.575 525.866 281.479 525.839 281.386C526.617 281.435 527.397 281.388 528.163 281.247C527.54 280.483 526.917 279.712 526.294 278.947C526.28 278.933 526.267 278.918 526.255 278.902C525.939 278.511 525.62 278.123 525.303 277.731L525.303 277.731C525.286 276.531 525.424 275.335 525.713 274.17L525.713 274.17Z" fill="#F2F2F2"/>
<path d="M431.776 281.694C431.776 281.767 431.79 281.839 431.818 281.906C431.846 281.974 431.887 282.035 431.938 282.086C431.99 282.138 432.051 282.179 432.118 282.207C432.186 282.234 432.258 282.249 432.331 282.248H550.382C550.529 282.248 550.67 282.19 550.774 282.086C550.878 281.982 550.936 281.841 550.936 281.694C550.936 281.547 550.878 281.406 550.774 281.302C550.67 281.198 550.529 281.139 550.382 281.139H432.331C432.258 281.139 432.186 281.153 432.118 281.181C432.051 281.209 431.99 281.25 431.938 281.301C431.887 281.353 431.846 281.414 431.818 281.481C431.79 281.549 431.776 281.621 431.776 281.694V281.694Z" fill="#CCCCCC"/>
<path d="M369.768 114.923L369.093 113.698C402.621 95.2129 417.878 82.7542 417.108 74.4903C416.481 67.7721 404.825 63.935 392.483 59.8724C377.626 54.9814 360.786 49.4379 357.277 37.283C354.936 29.1739 358.736 19.259 368.892 6.97144L369.97 7.86216C360.13 19.7667 356.417 29.2636 358.621 36.8953C361.924 48.3408 378.392 53.7616 392.921 58.5443C406.264 62.9369 417.788 66.7305 418.5 74.3606C419.339 83.3684 404.31 95.8781 369.768 114.923Z" fill="#9CA3AF"/>
<path d="M429.088 235.365L417.902 231.637L430.197 177.517L464.572 143.063L483.678 133.714H514.084C514.084 133.714 524.389 144.672 521.92 150.982C521.169 152.899 519.95 165.303 517.164 166.544C514.379 167.785 517.933 170.227 515.923 170.87C513.913 171.514 515.008 174.082 514.543 175.724C510.072 191.51 500.397 209.732 500.397 209.732L504.125 244.221L490.609 252.61L481.82 208.827L486.89 164.644C486.89 164.644 461.938 176.823 462.525 179.528C463.111 182.233 457.941 180.248 458.196 182.173C458.45 184.098 454.016 184.726 454.016 184.726L450.016 187.169L429.088 235.365Z" fill="#2F2E41"/>
<path d="M430.926 30.6216C431.031 31.3089 431.284 31.9652 431.668 32.5451C432.051 33.1249 432.556 33.6145 433.148 33.98C433.739 34.3456 434.403 34.5782 435.093 34.662C435.783 34.7457 436.484 34.6786 437.145 34.4651L452.836 52.5286L458.899 49.417L440.106 28.0989C439.664 27.0119 438.839 26.1248 437.786 25.6057C436.734 25.0867 435.527 24.9717 434.396 25.2827C433.264 25.5936 432.286 26.3089 431.647 27.2929C431.007 28.2769 430.751 29.4613 430.926 30.6216H430.926Z" fill="#FFB6B6"/>
<path d="M513.368 75.3622L510.203 87.4001C510.055 87.9618 509.792 88.4863 509.429 88.94C509.067 89.3938 508.614 89.7668 508.099 90.0351C507.584 90.3033 507.018 90.4609 506.439 90.4978C505.859 90.5346 505.278 90.4498 504.733 90.2489L470.141 77.493L440.74 40.082L447.779 35.1143L476.873 61.5961C485.038 59.7878 499.878 68.6544 513.368 75.3622Z" fill="#E6E6E6"/>
<path d="M505.146 55.8222L495.736 54.9963L481.754 68.9784L479.423 74.1052C474.53 76.7116 479.072 74.6307 479.423 80.1641L480.356 116.051C480.356 116.051 469.432 127.642 473.274 130.774C477.117 133.906 470.304 141.664 478.514 137.76C486.724 133.855 525.564 151.939 525.564 151.939C525.564 151.939 526.99 141.641 523.248 141.197C519.505 140.753 518.107 141.262 522.302 136.813C526.496 132.364 520.438 128.169 520.438 128.169L520.26 95.6377L520.882 77.891C520.998 74.5747 520.014 71.3132 518.083 68.6147C516.152 65.9163 513.382 63.9325 510.206 62.9726L509.415 62.7337L505.146 55.8222Z" fill="#E6E6E6"/>
<path d="M499.989 52.4322C492.24 52.4322 485.957 46.1499 485.957 38.4002C485.957 30.6505 492.24 24.3682 499.989 24.3682C507.739 24.3682 514.021 30.6505 514.021 38.4002C514.021 46.1499 507.739 52.4322 499.989 52.4322Z" fill="#FFB6B6"/>
<path d="M516.708 36.8621C516.785 41.1375 513.131 52.8471 503.066 52.3518C500.731 52.23 507.463 43.7279 502.684 42.5464C502.582 42.5221 502.473 42.5018 502.355 42.4855C502.229 42.4687 502.105 42.4388 501.986 42.3962C499.834 41.6248 502.871 37.2519 501.137 35.9892C498.284 35.1687 495.369 34.5861 492.42 34.2474C492.351 33.519 492.148 32.8099 491.819 32.1564C491.826 32.8709 491.632 33.5731 491.258 34.1824C489.906 34.154 488.774 34.3042 488.144 34.7711C485.253 36.9109 486.557 31.2793 484.084 28.6808C484.486 28.356 486.865 29.0219 487.604 29.3589C487.365 28.9691 487.196 28.5403 487.105 28.0921C486.989 27.6009 487.026 27.0861 487.211 26.6166C487.396 26.1471 487.721 25.7453 488.14 25.4652C489.05 24.9617 490.207 25.2703 491.177 24.9049C491.298 24.8469 491.403 24.7599 491.483 24.6515C491.562 24.5431 491.613 24.4167 491.632 24.2837C491.705 23.9704 491.846 23.677 492.045 23.4245C492.244 23.1719 492.497 22.9664 492.784 22.8226C493.072 22.6787 493.388 22.6001 493.709 22.5923C494.031 22.5845 494.35 22.6476 494.645 22.7773C494.758 22.8408 494.885 22.8757 495.014 22.8788C495.69 22.8368 496.358 22.7127 497.004 22.5093C496.277 22.1721 495.578 21.7784 494.913 21.3319C494.779 21.2385 494.641 21.1451 494.507 21.0477C495.643 20.0123 497.333 19.7119 498.863 19.9271C500.475 20.1544 501.969 20.8731 503.439 21.5796C504.288 21.9937 505.135 22.4065 505.981 22.8179C507.775 23.6827 509.391 26.7116 511.153 25.7818C514.13 24.2146 516.631 32.5908 516.708 36.8621Z" fill="#2F2E41"/>
<path d="M432.35 37.7516C429.519 37.7516 427.224 35.4562 427.224 32.6248C427.224 29.7934 429.519 27.498 432.35 27.498C435.182 27.498 437.477 29.7934 437.477 32.6248C437.477 35.4562 435.182 37.7516 432.35 37.7516Z" fill="#FBBF24"/>
<path d="M414.126 77.3123C414.516 77.8878 415.026 78.3717 415.622 78.7305C416.217 79.0894 416.884 79.3145 417.575 79.3905C418.266 79.4665 418.965 79.3915 419.625 79.1706C420.284 78.9497 420.887 78.5882 421.393 78.1112L443.322 87.6819L447.461 82.2672L421.332 71.0903C420.466 70.2986 419.339 69.8522 418.166 69.8357C416.992 69.8191 415.854 70.2336 414.965 71.0005C414.077 71.7675 413.501 72.8336 413.346 73.9969C413.192 75.1602 413.469 76.3398 414.126 77.3123V77.3123Z" fill="#FFB6B6"/>
<path d="M507.792 82.2964L510.106 94.5265C510.214 95.0971 510.202 95.6839 510.069 96.2494C509.937 96.8148 509.688 97.3463 509.338 97.8098C508.988 98.2733 508.545 98.6585 508.038 98.9408C507.53 99.223 506.97 99.396 506.391 99.4486L469.674 102.791L427.69 82.0283L431.274 74.1292L468.923 85.5439C475.145 80.312 492.637 82.0238 507.792 82.2964Z" fill="#E6E6E6"/>
<path d="M411.905 53.2395L411.917 60.8907C411.922 61.0235 411.978 61.1494 412.073 61.2418C412.169 61.3342 412.297 61.3858 412.43 61.3858C412.563 61.3858 412.69 61.3342 412.786 61.2418C412.882 61.1494 412.938 61.0235 412.942 60.8907L412.93 53.2395C412.925 53.1066 412.869 52.9807 412.774 52.8884C412.678 52.796 412.551 52.7444 412.418 52.7444C412.285 52.7444 412.157 52.796 412.061 52.8884C411.966 52.9807 411.91 53.1066 411.905 53.2395V53.2395Z" fill="#FBBF24"/>
<path d="M408.331 57.3551L415.788 57.3733C415.921 57.3687 416.047 57.3127 416.139 57.2171C416.231 57.1215 416.283 56.9938 416.283 56.8608C416.283 56.7279 416.231 56.6001 416.139 56.5045C416.047 56.4089 415.921 56.3529 415.788 56.3483L408.331 56.3301C408.198 56.3347 408.072 56.3907 407.979 56.4863C407.887 56.5819 407.835 56.7096 407.835 56.8426C407.835 56.9755 407.887 57.1033 407.979 57.1989C408.072 57.2945 408.198 57.3505 408.331 57.3551V57.3551Z" fill="#FBBF24"/>
<path d="M419.3 56.8604C419.3 55.4777 418.89 54.1261 418.122 52.9764C417.354 51.8267 416.262 50.9307 414.985 50.4015C413.707 49.8724 412.302 49.734 410.945 50.0037C409.589 50.2735 408.344 50.9393 407.366 51.917C406.388 52.8947 405.722 54.1404 405.453 55.4965C405.183 56.8527 405.321 58.2583 405.851 59.5358C406.38 60.8132 407.276 61.9051 408.425 62.6733C409.575 63.4415 410.927 63.8515 412.309 63.8515C414.163 63.8494 415.94 63.1122 417.25 61.8016C418.561 60.4909 419.298 58.7139 419.3 56.8604ZM418.302 56.8604C418.302 58.0456 417.95 59.2042 417.292 60.1896C416.633 61.175 415.697 61.9431 414.603 62.3966C413.508 62.8502 412.303 62.9688 411.14 62.7376C409.978 62.5064 408.91 61.9357 408.072 61.0977C407.234 60.2596 406.663 59.1919 406.432 58.0295C406.201 56.8671 406.32 55.6622 406.773 54.5673C407.227 53.4723 407.995 52.5364 408.98 51.878C409.966 51.2196 411.124 50.8681 412.309 50.8681C413.898 50.8699 415.421 51.5018 416.545 52.6252C417.668 53.7486 418.3 55.2717 418.302 56.8604V56.8604Z" fill="#FBBF24"/>
<path d="M368.727 123.974C365.896 123.974 363.6 121.679 363.6 118.848C363.6 116.016 365.896 113.721 368.727 113.721C371.559 113.721 373.854 116.016 373.854 118.848C373.854 121.679 371.559 123.974 368.727 123.974Z" fill="#9CA3AF"/>
<path d="M371.295 10.2535C368.464 10.2535 366.168 7.9582 366.168 5.12677C366.168 2.29533 368.464 0 371.295 0C374.127 0 376.422 2.29533 376.422 5.12677C376.422 7.9582 374.127 10.2535 371.295 10.2535Z" fill="#9CA3AF"/>
</svg>
