<svg height="36" viewBox="0 0 500 500" fill="none" xmlns="http://www.w3.org/2000/svg">
  <circle cx="250" cy="250" r="250" fill="#FBBF24"/>
  <path
    d="M165.173 157.266V335H128.552V157.266H165.173ZM235.974 233.193V261.758H155.163V233.193H235.974ZM244.519 157.266V185.952H155.163V157.266H244.519ZM338.879 385.781V229.897L343.396 202.92H374.279V385.781H338.879ZM255.383 270.303V267.739C255.383 257.648 256.481 248.493 258.679 240.273C260.957 231.973 264.294 224.893 268.688 219.033C273.083 213.092 278.454 208.535 284.802 205.361C291.231 202.106 298.636 200.479 307.019 200.479C315.075 200.479 322.033 202.106 327.893 205.361C333.752 208.617 338.675 213.215 342.663 219.155C346.732 225.096 349.987 232.095 352.429 240.151C354.87 248.208 356.742 257.038 358.044 266.641V272.256C356.823 281.452 354.951 289.997 352.429 297.891C349.987 305.785 346.732 312.702 342.663 318.643C338.675 324.583 333.711 329.222 327.771 332.559C321.911 335.814 314.912 337.441 306.774 337.441C298.555 337.441 291.231 335.773 284.802 332.437C278.454 329.019 273.083 324.299 268.688 318.276C264.294 312.254 260.957 305.174 258.679 297.036C256.481 288.817 255.383 279.906 255.383 270.303ZM290.539 267.739V270.303C290.539 275.755 290.987 280.882 291.882 285.684C292.777 290.404 294.201 294.595 296.154 298.257C298.189 301.919 300.793 304.808 303.967 306.924C307.141 308.958 311.047 309.976 315.686 309.976C322.115 309.976 327.282 308.592 331.188 305.825C335.176 302.977 338.106 299.111 339.978 294.229C341.931 289.346 343.07 283.771 343.396 277.505V261.514C343.151 256.387 342.46 251.789 341.32 247.72C340.262 243.569 338.635 240.029 336.438 237.1C334.322 234.17 331.555 231.932 328.137 230.386C324.8 228.758 320.731 227.944 315.93 227.944C311.372 227.944 307.466 228.962 304.211 230.996C300.956 233.031 298.311 235.879 296.276 239.541C294.323 243.122 292.858 247.313 291.882 252.114C290.987 256.916 290.539 262.124 290.539 267.739Z"
    fill="white"/>
</svg>